PathFileType	4	(X/Y/Z)	C:/Users/opensim2020/Desktop/walking_exp_matlab/subject02_walking12_straight_04.trc	
DataRate	CameraRate	NumFrames	NumMarkers	Units	OrigDataRate	OrigDataStartFrame	OrigNumFrames	
100.00	100.00	8	42	mm	100.00	2055	125	
Frame#	Time	LFHD			RFHD			LBHD			RBHD			C7			T10			CLAV			STRN			RBAK			LSHO			LUPA			LELB			LFRM			LWRA			LWRB			LFIN			RSHO			RUPA			RELB			RFRM			RWRA			RWRB			RFIN			LASI			RASI			LPSI			RPSI			LTHI			LKNE			LTIB			LANK			LHEE			LTOE			RTHI			RKNE			RTIB			RANK			RHEE			RTOE			*39			*40			*41			
		X1	Y1	Z1	X2	Y2	Z2	X3	Y3	Z3	X4	Y4	Z4	X5	Y5	Z5	X6	Y6	Z6	X7	Y7	Z7	X8	Y8	Z8	X9	Y9	Z9	X10	Y10	Z10	X11	Y11	Z11	X12	Y12	Z12	X13	Y13	Z13	X14	Y14	Z14	X15	Y15	Z15	X16	Y16	Z16	X17	Y17	Z17	X18	Y18	Z18	X19	Y19	Z19	X20	Y20	Z20	X21	Y21	Z21	X22	Y22	Z22	X23	Y23	Z23	X24	Y24	Z24	X25	Y25	Z25	X26	Y26	Z26	X27	Y27	Z27	X28	Y28	Z28	X29	Y29	Z29	X30	Y30	Z30	X31	Y31	Z31	X32	Y32	Z32	X33	Y33	Z33	X34	Y34	Z34	X35	Y35	Z35	X36	Y36	Z36	X37	Y37	Z37	X38	Y38	Z38	X39	Y39	Z39	X40	Y40	Z40	X41	Y41	Z41	X42	Y42	Z42	

63	0.620	1473.37610	-80.27087	1731.32385	1331.30505	-66.99659	1710.46216	1494.92725	43.91180	1649.11560	1355.29407	69.22861	1626.99744	1418.10046	101.34604	1509.98743	1414.58740	151.76614	1233.84607	1437.40466	-36.93605	1442.27295	1426.88879	-91.89007	1271.18079	1348.38281	152.97757	1336.14429	1601.89294	45.74216	1481.31738	1672.34692	102.51427	1285.46545	1676.08179	132.89587	1148.53088	1689.00928	160.13672	1020.28992	1656.84985	142.21458	881.89313	1692.04834	184.15314	898.41809	1689.50671	189.57713	830.53540	1240.46448	13.74903	1480.12390	1143.02856	-0.44531	1296.87292	1117.65039	-54.38324	1157.54565	1117.15991	-135.37682	1064.89636	1159.04126	-229.77422	978.00995	1118.96777	-198.72456	951.85291	1129.56274	-261.92197	917.40607	1548.41174	-82.79863	973.45508	1290.26270	-67.36543	955.83911	1476.72156	130.75645	1017.30597	1364.52026	142.60222	1017.22351	1629.72913	-77.15353	675.67438	1608.62427	-125.90665	482.65149	1621.07813	-148.29312	290.72760	1614.44531	-250.04909	85.73181	1561.39111	-235.06709	45.30831	1634.29272	-404.46033	107.68256	1243.77087	66.67633	656.59210	1293.85291	117.94144	453.10098	1288.93835	202.87265	284.38840	1330.36877	264.68469	99.92393	1385.15698	309.45828	48.86741	1317.86072	120.07514	36.57940	1393.29529	33.88640	1789.60291	-3357.17065	2845.85229	1034.23572			 
64	0.630	1474.88464	-94.75373	1728.28589	1333.02002	-81.07378	1707.59265	1496.81958	29.74826	1646.38110	1357.32935	55.65863	1624.26184	1420.21973	87.50345	1507.13208	1417.38416	137.91148	1230.96008	1439.15820	-50.81650	1439.33508	1428.42578	-105.73444	1268.45630	1350.74939	138.99550	1333.03784	1603.90332	31.55589	1478.34009	1672.63354	90.99739	1282.67688	1674.97083	123.47344	1146.72607	1688.40796	155.44617	1020.39771	1656.53174	143.38884	880.75580	1691.82617	184.32686	899.42688	1689.09753	193.51587	831.87250	1242.42273	0.48911	1477.48340	1144.63940	-15.12059	1294.90857	1118.10706	-70.54573	1156.25879	1118.01636	-154.46400	1065.78772	1160.21790	-251.15891	981.84418	1120.33154	-220.94792	954.51434	1131.04749	-285.10010	922.22858	1549.76111	-98.07626	970.80560	1291.48621	-80.50809	953.69824	1479.59106	116.34468	1013.90491	1367.86780	129.13326	1013.82196	1632.63025	-90.37996	672.83331	1610.58911	-142.19875	480.31067	1625.19617	-170.56061	290.15259	1618.17664	-279.24039	87.45095	1566.03455	-263.54834	46.38161	1633.28772	-433.54022	113.20477	1244.78479	57.99584	655.56317	1294.57898	111.47960	452.55655	1289.98450	199.29283	285.35492	1331.24133	263.58234	101.49363	1386.53711	308.49911	50.90424	1317.70288	119.86558	36.55351	1395.15869	19.60160	1786.84875	-3360.38208	2845.17236	1034.19238			 
65	0.640	1476.74377	-108.93863	1725.32690	1334.54919	-95.10547	1704.64075	1498.78174	15.52592	1643.76501	1359.16663	41.40222	1621.84338	1422.34875	73.93450	1504.39026	1420.06067	123.90895	1228.15137	1441.09937	-64.80141	1436.64233	1430.25415	-119.62354	1265.81799	1353.31946	125.26981	1329.93408	1605.94116	17.31142	1475.50195	1673.73389	79.58375	1280.38611	1673.90637	113.54017	1144.88708	1687.95850	150.13423	1020.49695	1656.33240	143.80840	880.11414	1691.75720	183.46838	900.77411	1688.81128	196.27684	833.65900	1244.33557	-12.67654	1474.76563	1146.39758	-28.97209	1292.67761	1118.75793	-86.73103	1154.62195	1119.16028	-172.68848	1066.56116	1161.11145	-272.80948	985.73712	1121.75305	-242.40668	957.10260	1132.27283	-307.37659	926.78931	1550.96045	-113.41267	968.45020	1292.71277	-93.71555	951.34552	1482.58447	101.65926	1010.72253	1371.31628	115.34583	1010.64398	1635.32178	-104.63982	670.08545	1612.85120	-159.24164	478.48709	1628.50281	-191.54716	289.25595	1621.70398	-304.04636	88.92389	1570.05725	-288.15686	46.66511	1632.31128	-458.70822	116.52074	1246.07544	48.98081	654.71436	1295.28333	104.30472	452.16525	1291.20813	195.62404	286.40515	1331.99377	262.35944	103.59304	1387.43652	307.61612	53.49165	1317.43713	119.64528	36.40578	1397.16052	5.28261	1784.26758	-3360.38452	2845.14551	1034.21301			 
66	0.650	1478.61755	-123.40762	1722.72656	1336.54736	-109.19656	1702.00598	1500.79089	1.27991	1641.28528	1361.28137	27.48865	1619.38818	1424.54529	59.97218	1501.74951	1422.68018	109.83430	1225.40259	1443.11707	-78.68914	1433.97607	1432.25354	-133.64336	1263.35608	1356.02283	111.55293	1327.10889	1608.12012	3.18194	1472.87427	1674.88855	67.77863	1278.15076	1673.50037	103.61151	1143.46680	1687.68445	144.14256	1020.82404	1656.39795	142.71303	880.02972	1691.83801	181.59959	902.34149	1688.53369	197.93324	835.95740	1246.28943	-25.97914	1472.05347	1148.03333	-42.28414	1290.29846	1119.82983	-102.23578	1153.24158	1120.18176	-190.28127	1067.10315	1162.10449	-292.86896	989.37592	1123.36133	-263.39429	959.71301	1133.49475	-328.78787	931.39258	1552.10327	-128.83301	966.40173	1294.00781	-107.18661	948.98682	1485.74817	87.13964	1007.98712	1374.78052	101.28632	1007.68530	1637.26831	-120.90652	667.89410	1615.21594	-177.86510	477.12936	1631.36267	-211.00294	288.21515	1623.99390	-324.91064	88.66472	1572.88501	-308.81528	45.47171	1631.90613	-479.65833	117.42445	1247.99170	39.37503	654.37109	1295.84448	96.13766	451.62387	1292.10657	190.90718	287.71194	1332.31116	260.96152	106.11331	1387.81812	306.78714	56.77644	1317.20947	119.43192	36.31189	1399.04797	-9.08923	1781.70142	-3357.35547	2845.86646	1034.30713			 
67	0.660	1480.08569	-137.97626	1720.03174	1338.09729	-123.27731	1699.10400	1502.90076	-13.00944	1638.97961	1363.46667	13.72728	1616.89124	1426.75037	46.17011	1499.27795	1424.97864	95.22015	1222.55945	1445.29199	-92.62032	1431.46191	1434.44946	-147.78644	1261.13293	1358.97034	97.88223	1324.46704	1610.38025	-10.85705	1470.43469	1676.37195	55.81799	1276.10938	1673.77722	93.63140	1142.44238	1687.75330	137.45146	1021.30682	1656.64050	140.56967	880.19513	1692.13635	178.61548	904.05127	1688.38232	198.15877	838.36554	1248.51013	-39.03332	1469.48645	1149.96313	-56.00624	1287.71484	1120.93237	-117.24129	1151.50085	1121.27551	-207.71208	1067.60974	1163.10461	-312.11606	992.81525	1124.64111	-283.05652	962.02295	1134.42688	-349.65796	935.85944	1553.35193	-144.51227	964.67389	1295.10925	-120.59016	946.38397	1488.97620	73.29062	1005.85706	1378.48657	86.90238	1004.89111	1638.66016	-140.41614	666.72858	1617.35791	-197.36086	476.26147	1634.07861	-229.25352	286.98029	1625.65601	-341.90027	87.05890	1575.00745	-325.06152	43.73548	1631.85950	-496.78317	115.34509	1249.54089	29.46820	653.68915	1296.15613	87.05301	451.03973	1292.61682	185.50627	289.18692	1332.14038	259.23892	108.88294	1387.75769	305.74210	60.64281	1316.92822	119.13570	36.22337	1400.98914	-23.55332	1779.22864	-3357.36377	2845.88892	1034.32910			 
68	0.670	1482.17578	-152.40961	1717.72583	1340.09314	-137.41051	1696.59229	1505.01331	-27.32461	1636.84253	1365.69995	-0.26271	1614.69604	1428.94324	32.42532	1496.93567	1427.65723	81.38316	1220.14050	1447.58765	-106.57063	1429.18970	1436.92090	-161.89627	1258.98206	1361.76038	84.08424	1321.84619	1612.66699	-24.86413	1468.17456	1677.87878	43.51038	1274.12585	1674.14429	83.17081	1141.38440	1688.19934	130.00557	1021.88934	1657.00610	137.15178	880.56781	1692.71289	174.36226	905.76837	1687.91492	196.84657	840.73993	1250.35742	-52.59946	1466.79590	1151.48083	-70.41900	1285.34570	1122.38708	-132.02849	1149.67383	1122.16602	-224.33769	1067.73425	1163.96753	-330.67282	996.19330	1126.12207	-302.07837	964.28583	1135.26025	-369.57431	940.15002	1554.80798	-160.43324	963.27216	1296.84216	-134.84225	944.03540	1492.76147	57.35349	1003.27032	1381.99011	72.17965	1002.39282	1640.19763	-161.79855	666.30255	1619.25500	-216.84750	475.67575	1636.52087	-246.47615	285.76941	1626.80811	-355.79694	84.50253	1576.28333	-337.63309	41.53138	1631.94446	-510.73602	110.80316	1250.93604	18.74454	653.09796	1296.38513	77.03061	450.43625	1292.81189	179.29222	290.83090	1331.57495	257.20511	112.09667	1387.16821	304.65659	65.12893	1316.56543	118.83246	36.17868	1402.95898	-37.99721	1776.99634	-3360.40601	2845.20654	1034.22302			 
69	0.680	1483.76721	-166.78664	1715.07715	1341.91858	-151.49193	1694.07373	1507.20850	-41.66004	1634.87329	1367.93250	-14.26125	1612.55139	1431.28442	18.61780	1494.73706	1430.14233	67.01479	1217.65735	1450.03833	-120.54444	1427.05762	1439.51086	-176.09630	1257.00659	1364.43665	70.18240	1319.33618	1615.05127	-38.76701	1466.17175	1680.09119	31.45218	1272.77405	1674.74121	72.13787	1140.33594	1689.06067	121.82063	1022.39966	1658.23999	132.52972	881.12061	1693.60120	168.78088	907.32318	1688.07471	194.36987	843.54425	1252.72839	-65.88464	1464.32703	1153.80261	-83.54122	1282.69031	1123.27234	-146.19731	1147.83191	1123.66016	-239.99136	1067.88501	1164.83862	-348.39078	999.27954	1127.70886	-320.38873	966.32983	1136.17029	-388.42868	944.23816	1556.45557	-176.73381	962.09363	1298.68579	-149.51024	941.65045	1496.46985	41.72955	1001.15637	1385.47839	56.94238	999.97791	1641.99878	-183.93472	666.77136	1621.11157	-236.26007	475.04520	1638.65491	-262.62698	284.42749	1627.75012	-366.96201	81.18443	1577.42273	-347.54953	38.47047	1632.10693	-522.16870	104.48945	1252.60950	6.66931	652.29498	1296.52832	66.15724	449.86615	1292.87952	172.42091	292.58762	1330.72766	254.88330	115.99824	1386.31958	303.35187	70.40919	1316.38257	118.67510	35.79925	1404.88416	-52.56539	1774.75525	-3357.50366	2845.83911	1034.27356			 
70	0.690	1485.63953	-181.37132	1712.87415	1343.74304	-165.60739	1691.49463	1509.46118	-55.94718	1633.03845	1370.29846	-28.14561	1610.53271	1433.69080	4.56120	1492.62878	1432.67957	52.51460	1215.19287	1452.54236	-134.55356	1425.08826	1442.30066	-190.43637	1255.23474	1367.41309	56.47122	1316.95227	1617.45569	-52.69807	1464.39050	1682.33020	19.07311	1271.54419	1676.08313	61.11812	1139.70898	1689.73669	112.59640	1022.61157	1659.81787	126.31824	882.10553	1694.85767	161.88420	908.70856	1688.17786	190.11478	845.76367	1254.91187	-79.60536	1461.85559	1156.73010	-95.88100	1280.19519	1125.22693	-160.12186	1145.62524	1124.92798	-255.82278	1068.06140	1165.63062	-365.49246	1002.21527	1129.25732	-337.90833	968.12878	1136.78186	-406.65942	948.07440	1558.47021	-193.41971	961.17462	1300.35901	-164.41449	939.16693	1500.11365	25.83066	999.09161	1388.86011	41.29555	997.65387	1643.60120	-206.07669	667.28735	1623.08972	-255.25058	474.19928	1640.66980	-277.59460	282.83334	1628.42090	-376.03256	77.15873	1578.27661	-355.63321	34.48103	1632.18689	-531.52887	97.27261	1254.30066	-6.48658	651.36707	1296.62134	54.46299	449.43384	1292.89441	164.86575	294.90039	1329.70776	252.08038	120.46668	1385.29089	301.47580	76.48370	1315.76282	118.21888	35.98486	1406.83447	-67.03780	1772.65308	-3357.33472	2845.92871	1034.24060			 
